<?xml version="1.0" encoding="UTF-8"?>
<!DOCTYPE svg PUBLIC "-//W3C//DTD SVG 1.1//EN" "http://www.w3.org/Graphics/SVG/1.1/DTD/svg11.dtd">
<!-- Creator: CorelDRAW 2020 (64-Bit) -->
<svg xmlns="http://www.w3.org/2000/svg" xml:space="preserve" width="120mm" height="120mm" version="1.1"
     style="shape-rendering:geometricPrecision; text-rendering:geometricPrecision; image-rendering:optimizeQuality; fill-rule:evenodd; clip-rule:evenodd"
     viewBox="0 0 12000 12000"
     xmlns:xlink="http://www.w3.org/1999/xlink"
     xmlns:xodm="http://www.corel.com/coreldraw/odm/2003">
 <defs>
  <style type="text/css">
   <![CDATA[
    .str0 {stroke:#989898;stroke-width:75;stroke-miterlimit:22.9256}
    .str1 {stroke:#989898;stroke-width:150;stroke-miterlimit:22.9256}
    .fil2 {fill:none}
    .fil0 {fill:#989898}
    .fil1 {fill:#989898;fill-rule:nonzero}
   ]]>
  </style>
 </defs>
    <g id="Layer_x0020_1">
  <metadata id="CorelCorpID_0Corel-Layer"/>
        <g id="_2161280646976">
   <path class="fil0"
         d="M7978.41 6939.01c-13.99,-3.73 -112.62,-58.33 -130.82,-68.9l-95.23 -52.09c-9.26,-5.39 -24.84,-13.95 -35.87,-16.52 0,71.71 -6.56,147.44 -6.55,219.36 0.01,74.8 -6.72,149.95 -6.55,222.63 0.04,18.58 0.14,37.2 0.11,55.77 -0.02,21.4 -3.53,31.54 -3.4,55.53 0.09,18.56 -0.06,37.13 0.04,55.7 0.09,17.84 -1.79,38.23 -3.3,58.93l0 70.65c1.64,11.59 4.51,22.26 9.22,31.43 22.91,44.65 78.52,60.03 120.46,27.57l345.8 -272.98c25.86,-21.24 51.22,-39.18 77.08,-60.43 13.56,-11.14 24.52,-19.07 38.66,-30.1 20.07,-15.67 106.54,-79.48 115.97,-93.56 -12.79,-2.98 -19.89,-8.59 -31.61,-14.23 -12.43,-5.98 -22.47,-9.43 -33.87,-15.24l-129.85 -60.04c-14.87,-7.56 -51.81,-27.13 -66.59,-28.36 19.46,-29.05 109.06,-108.92 144.78,-140.05 87.52,-76.27 187.85,-140.86 291.75,-192.8 358.2,-179.08 746.09,-202.88 1123.9,-71.86 66.84,23.18 125.25,50.96 186.79,81.68 21.36,10.66 37.88,20.52 56.92,31.48 72.76,41.89 145.12,89.22 206.91,146.67 38.44,35.74 48,41.47 93.31,86.77 14.71,14.71 30.74,28.98 44.17,44.22 8.21,9.33 10.18,13.52 19.69,22.88 8.5,8.36 13.3,15.69 21.24,24.6l77.46 99.33c48.94,71.09 96.42,142.14 132.87,223.99 75.25,168.94 88.79,250.5 112.78,420.88 4.29,30.43 10.96,140.35 6.51,169.78l-4.6 83.8c-3.89,78.7 -20.71,152.38 -36.33,228.86 -23.3,114.05 -68.21,222.32 -119.79,325.48 -48.34,96.68 -109.73,184.22 -177.42,267.83 -39.53,48.82 -85.13,94.77 -132.22,136.26 -79.54,70.1 -162.04,134.21 -254.74,187.25 -209.18,119.68 -452.4,196.6 -697.2,196.6 -119.58,0 -189.29,-6.13 -302.11,-25.28 -65.79,-11.17 -141.75,-30.62 -203.97,-54.68 -32.55,-12.58 -60.06,-22.81 -91.65,-36.03 -31.84,-13.34 -57.59,-26.7 -86.53,-41.16 -98.33,-49.17 -184.31,-111.61 -268.95,-179.59 -60.74,-48.77 -141.92,-137.44 -190.17,-196.16 -48.83,-59.44 -91.97,-122.96 -131.22,-189.63 -50.56,-85.91 -175.77,-69.28 -175.77,44.81 0,47.86 132.32,222.3 176.06,272.47l50.65 57.39c23.36,23.11 42.42,50.09 67.95,69.57 13.35,10.19 22.55,21.52 35.12,33.62 8.11,7.8 11.83,8.87 19.74,16.28 30.59,28.63 63.86,53.88 97.61,79.19 27.51,20.62 53.5,39.96 82.61,58.17 87.63,54.8 178.9,105.43 275.19,143.88 68.05,27.17 135.48,52.07 208.02,70.27 116.36,29.19 246.23,53.67 368.67,53.67 131.68,0 242.74,-2.88 369.18,-30.25 104.47,-22.61 200.98,-53.2 300.14,-92.73 24.95,-9.95 45.7,-21.49 67.79,-30.43 19.8,-8.02 45.46,-20.42 63.64,-31.31 21.65,-12.97 41.75,-22.38 62.99,-35.23 110.02,-66.58 151.45,-100.18 242.39,-173.4 91.77,-73.89 202.22,-197.29 268.33,-294.8 26.29,-38.77 53.56,-79.18 75.92,-120.52 6.18,-11.43 10.99,-18.64 17.43,-31.68 30.79,-62.21 50.98,-100.46 77.99,-167.56 9.19,-22.84 17.74,-46.88 26.13,-72.09 52.82,-158.51 91.26,-317.29 91.26,-498.06 0,-146.94 -10.54,-283.26 -47.73,-413.9 -14.74,-51.8 -26.12,-98.18 -45.32,-147.85l-57.6 -138.84c-38.25,-86.02 -88.71,-169.64 -144.51,-245.1 -7.52,-10.17 -12.57,-17.93 -20.54,-28.56l-65.06 -82.27c-4.29,-5.06 -6.86,-6.72 -11.14,-11.78l-34.5 -40.81c-15.96,-17.25 -33.89,-31.62 -49.11,-49.1 -5.39,-6.2 -4.91,-7.52 -10.15,-12.77l-89.17 -81.08c-64.63,-50.52 -97.31,-78.79 -168.37,-126.29 -188.37,-125.93 -419.98,-204.96 -644.41,-236.3 -65.47,-9.14 -131.47,-14.41 -197.52,-15.8l-69.99 0c-192.96,4 -384.8,41.34 -563.25,112.72 -25.59,10.23 -51.8,20.4 -75.64,32.39 -49.19,24.75 -97.02,47.08 -144.08,75.28 -24.82,14.87 -44.64,26.95 -68.48,42.84 -101.41,67.62 -199.07,145.43 -282.09,235.2 -19.16,20.71 -44.43,58.53 -66.26,74.52z"/>
            <path class="fil0"
                  d="M9189.08 7168.19c-9.16,38.21 -3.23,174.39 -3.23,222.63 0,55.57 2.62,630.6 -1.04,656.37 -27.3,8.71 -371.69,2.34 -430.47,2.34 -68.67,0 -392.21,-4.47 -432.16,2.52 -46.71,-16.83 -103,87.66 -23.52,144.79 8.44,6.07 13.92,10.24 26.79,6.84 35.91,8.12 435.99,3.03 507.47,3.03 170.04,0 340.07,0 510.11,0 0,-34.53 4.23,-997.9 -2.06,-1035.25 10.11,-33.21 -66.09,-103.33 -125.82,-49.94 -11.47,10.25 -30.72,27.82 -26.07,46.67z"/>
            <path class="fil0"
                  d="M10450.27 7885.19c-23.99,0 -40.83,19.41 -42.55,42.58 -0.94,12.69 0.01,29.51 0.07,42.62 0.18,43.84 -14.96,160.05 -22.14,197.22 -9.83,50.83 -21.25,92.5 -34.28,139.24l-46.27 127.26c-45.37,101.52 -90.21,185.1 -157.87,274.3 -37.64,49.61 -79.79,98.19 -123.39,141.79 -7.83,7.83 -13.25,13.68 -21.22,21.35l-70.37 60.59c-158.04,137.84 -386.84,236.01 -600.68,266.93 -51.36,7.43 -101.48,10.69 -161.62,11.9 -60.06,1.2 -64.26,77.31 -5.52,84.74l120.2 -6.07c136.73,-7.5 327.82,-65.5 443.18,-123.22 137.8,-68.95 246.93,-142.71 356.59,-252.37l83.33 -90.2c160.28,-188.4 255.34,-409.57 303.03,-652.97l22.05 -239.81c-1.83,-23.25 -17.99,-45.88 -42.54,-45.88z"/>
            <path class="fil0"
                  d="M8322.18 8052.05c39.95,-6.99 363.49,-2.52 432.16,-2.52 58.78,0 403.17,6.37 430.47,-2.34 3.66,-25.77 1.04,-600.8 1.04,-656.37 0,-48.24 -5.93,-184.42 3.23,-222.63 -5.94,5.24 -6.36,-1.47 -5.93,22.87l0.09 412.57c0,147.33 0,294.66 0,441.99l-808.68 0c-8.71,0 -17.51,0.12 -26.21,-0.04 -1.47,-0.02 -13.04,-0.48 -13.33,-0.45 -20.07,2.2 -6.08,-1.51 -12.84,6.92z"/>
            <path class="fil0"
                  d="M8325.45 8203.68c5.95,6.5 -0.86,3.67 9.76,5.75l1011.73 -0.11 0 -975.65c0,-10.9 -0.13,-21.87 0.02,-32.75 0.53,-37.27 0.73,-23.64 -5.99,-29.46 6.29,37.35 2.06,1000.72 2.06,1035.25 -170.04,0 -340.07,0 -510.11,0 -71.48,0 -471.56,5.09 -507.47,-3.03z"/>
  </g>
        <path class="fil1"
              d="M7989.65 1983.51l-4845.92 0 0 -0.13c-34.47,2.1 -322.14,27.38 -311.93,287.73l0.3 3.09 0 7947.43 -0.3 5.56c-0.06,0.74 -20.86,260.87 232.08,250.55 342.07,-13.94 6248.45,-0.03 6265.44,0l5.56 0c0.78,0.06 277.33,24.83 317.15,-310.76 8.3,-69.8 13.73,-308.42 17.06,-655.91 53.1,-15.76 105.21,-33.9 157.95,-54.58 -3.35,386.42 -9.06,653.54 -18.02,729.03 -57.87,487.72 -484.05,449.93 -485.26,449.84l0 -0.01c-201.3,-0.46 -5917.51,-13.7 -6253.7,0.01 -403.92,16.47 -398.51,-365.36 -396.19,-414.18l0 -7946.98 0.24 0c-14.63,-432.11 464.85,-448.56 466.23,-448.61l3.39 -0.31 4877.31 0 31.38 0 23.32 22.56 1709.49 1653.67 23.84 23.07 0.27 33.18c0.07,8.46 11.09,1409.92 17.38,2923.86 -51.6,-20.37 -104.43,-38.06 -157.8,-53.04 -5.81,-1362.03 -15.3,-2621.98 -16.95,-2837.04l-1662.32 -1608.03z"/>
        <path class="fil1 str0"
              d="M3604.34 4408.95l5302.95 0c87.47,0 166.95,35.75 224.54,93.34 57.57,57.57 93.33,137.07 93.33,224.54l0 1639.23 -46.95 0c-19.53,0.4 -39.04,1.16 -58.54,2.25l0 -1641.48c0,-58.36 -23.92,-111.46 -62.42,-149.96 -38.52,-38.52 -91.61,-62.43 -149.96,-62.43l-5302.95 0c-58.48,0 -111.57,23.84 -149.96,62.23l-0.2 0.2c-38.39,38.38 -62.23,91.47 -62.23,149.96l0 4968.02c0,58.36 23.92,111.45 62.43,149.96 38.5,38.5 91.61,62.43 149.96,62.43l5302.95 0c58.43,0 111.55,-23.88 150.05,-62.33 38.45,-38.51 62.33,-91.63 62.33,-150.06l0 -121.59c16.93,0.86 33.77,1.31 50.47,1.31 18.72,0 37.02,-0.07 55.02,-0.24l0 120.52c0,87.33 -35.76,166.75 -93.33,224.34l-0.2 0.2c-57.59,57.57 -137.01,93.33 -224.34,93.33l-5302.95 0c-87.47,0 -166.96,-35.76 -224.54,-93.33 -57.58,-57.59 -93.33,-137.07 -93.33,-224.54l0 -4968.02c0,-87.23 35.72,-166.65 93.33,-224.34l0.11 -0.1 0.09 -0.1c57.69,-57.61 137.11,-93.34 224.34,-93.34z"/>
        <rect class="fil0 str1" x="5499.7" y="3275.52" width="837.31" height="676.83" rx="20.99" ry="20.99"/>
        <rect class="fil0 str1" x="7020.82" y="3254.42" width="837.31" height="676.83" rx="20.99" ry="20.99"/>
        <rect class="fil0 str1" x="4041.74" y="3275.52" width="837.31" height="676.83" rx="20.99" ry="20.99"/>
        <line class="fil2 str1" x1="5205.75" y1="4461.7" x2="5205.75" y2="9959.98"/>
        <line class="fil2 str1" x1="6726.85" y1="4461.7" x2="6726.85" y2="9959.98"/>
        <line class="fil2 str1" x1="3339.21" y1="5370.32" x2="9172.42" y2="5370.32"/>
        <line class="fil2 str1" x1="3339.21" y1="7193.05" x2="7776.94" y2="7193.05"/>
        <line class="fil2 str1" x1="3339.21" y1="9048.85" x2="8153.28" y2="9088.16"/>
        <path class="fil0"
              d="M7980.13 1938.79l62.85 1416.42c0,0 55.84,275.63 275.64,265.16 219.79,-10.46 1371,-27.92 1371,-27.92l-1709.49 -1653.66z"/>
        <line class="fil2 str1" x1="3431.88" y1="6378.26" x2="9119.67" y2="6378.26"/>
        <line class="fil2 str1" x1="3431.88" y1="8163.07" x2="7869.61" y2="8163.07"/>
 </g>
</svg>
